G75*
%MOIN*%
%OFA0B0*%
%FSLAX25Y25*%
%IPPOS*%
%LPD*%
%AMOC8*
5,1,8,0,0,1.08239X$1,22.5*
%
%ADD10C,0.00000*%
%ADD11R,0.06500X0.06500*%
%ADD12C,0.06500*%
%ADD13OC8,0.06000*%
%ADD14C,0.20000*%
%ADD15C,0.01600*%
%ADD16R,0.03562X0.03562*%
D10*
X0041800Y0001000D02*
X0041800Y0159701D01*
X0136721Y0159701D01*
X0136721Y0001000D01*
X0041800Y0001000D01*
D11*
X0113800Y0129000D03*
D12*
X0113800Y0119000D03*
X0113800Y0109000D03*
X0113800Y0099000D03*
X0113800Y0089000D03*
X0113800Y0079000D03*
X0113800Y0069000D03*
X0113800Y0059000D03*
X0113800Y0049000D03*
X0113800Y0039000D03*
D13*
X0076800Y0042200D03*
X0076800Y0053000D03*
X0076800Y0063800D03*
X0076800Y0074600D03*
X0076800Y0085400D03*
X0076800Y0096200D03*
X0076800Y0107000D03*
X0076800Y0117800D03*
X0066800Y0112400D03*
X0066800Y0101600D03*
X0066800Y0090800D03*
X0066800Y0080000D03*
X0066800Y0069200D03*
X0066800Y0058400D03*
X0066800Y0047600D03*
D14*
X0071800Y0014400D03*
X0071800Y0145600D03*
D15*
X0107800Y0129000D02*
X0096800Y0111000D01*
X0091800Y0104600D01*
X0085400Y0101600D01*
X0066800Y0101600D01*
X0076800Y0085400D02*
X0085200Y0085400D01*
X0109800Y0124000D01*
X0123800Y0124000D01*
X0130800Y0116000D01*
X0130800Y0045000D01*
X0128800Y0039000D01*
X0113800Y0039000D01*
X0113800Y0049000D02*
X0122800Y0056000D01*
X0113800Y0059000D02*
X0106800Y0059000D01*
X0102800Y0064000D02*
X0102800Y0048000D01*
X0100800Y0042000D01*
X0085800Y0042000D01*
X0083000Y0042200D01*
X0076800Y0042200D01*
X0076800Y0053000D02*
X0088800Y0053000D01*
X0092800Y0058000D01*
X0108800Y0086000D01*
X0113800Y0089000D01*
X0110800Y0094000D02*
X0122800Y0094000D01*
X0126800Y0099000D02*
X0126800Y0069000D01*
X0113800Y0069000D01*
X0107800Y0074000D02*
X0102800Y0064000D01*
X0098800Y0059000D02*
X0090400Y0047600D01*
X0066800Y0047600D01*
X0066800Y0058400D02*
X0089400Y0058400D01*
X0105800Y0087000D01*
X0110800Y0094000D01*
X0107800Y0097000D02*
X0088600Y0063800D01*
X0076800Y0063800D01*
X0076800Y0074600D02*
X0086200Y0074000D01*
X0099800Y0095000D01*
X0107800Y0107000D01*
X0113800Y0109000D01*
X0108800Y0104000D02*
X0124800Y0104000D01*
X0126800Y0099000D01*
X0113800Y0099000D02*
X0107800Y0097000D01*
X0108800Y0104000D02*
X0101800Y0093000D01*
X0087600Y0069200D01*
X0066800Y0069200D01*
X0066800Y0080000D02*
X0085800Y0080000D01*
X0107800Y0113000D01*
X0113800Y0119000D01*
X0113800Y0129000D02*
X0107800Y0129000D01*
X0113800Y0079000D02*
X0107800Y0074000D01*
D16*
X0106800Y0059000D03*
X0098800Y0059000D03*
X0122800Y0056000D03*
X0122800Y0094000D03*
M02*
