G75*
%MOIN*%
%OFA0B0*%
%FSLAX25Y25*%
%IPPOS*%
%LPD*%
%AMOC8*
5,1,8,0,0,1.08239X$1,22.5*
%
%ADD10C,0.00000*%
%ADD11C,0.00500*%
%ADD12C,0.00400*%
%ADD13C,0.00600*%
%ADD14C,0.00700*%
%ADD15R,0.03000X1.05500*%
%ADD16R,0.02000X1.54500*%
%ADD17R,0.28500X0.03200*%
%ADD18R,0.18500X0.03200*%
D10*
X0041800Y0001000D02*
X0041800Y0159701D01*
X0136721Y0159701D01*
X0136721Y0001000D01*
X0041800Y0001000D01*
D11*
X0038050Y0033750D02*
X0033546Y0033750D01*
X0033546Y0036753D01*
X0035047Y0038354D02*
X0033546Y0039855D01*
X0038050Y0039855D01*
X0038050Y0038354D02*
X0038050Y0041356D01*
X0037299Y0042958D02*
X0038050Y0043708D01*
X0038050Y0045210D01*
X0037299Y0045960D01*
X0035798Y0045960D01*
X0035047Y0045210D01*
X0035047Y0044459D01*
X0035798Y0042958D01*
X0033546Y0042958D01*
X0033546Y0045960D01*
X0035798Y0035251D02*
X0035798Y0033750D01*
X0064546Y0034501D02*
X0065297Y0033750D01*
X0066047Y0033750D01*
X0066798Y0034501D01*
X0066798Y0036753D01*
X0065297Y0036753D02*
X0064546Y0036002D01*
X0064546Y0034501D01*
X0065297Y0036753D02*
X0068299Y0036753D01*
X0069050Y0036002D01*
X0069050Y0034501D01*
X0068299Y0033750D01*
X0074546Y0035251D02*
X0079050Y0035251D01*
X0079050Y0033750D02*
X0079050Y0036753D01*
X0076047Y0033750D02*
X0074546Y0035251D01*
X0108800Y0034000D02*
X0108800Y0134000D01*
X0118800Y0134000D01*
X0118800Y0034000D01*
X0108800Y0034000D01*
X0078299Y0123750D02*
X0077549Y0123750D01*
X0076798Y0124501D01*
X0076798Y0126002D01*
X0077549Y0126753D01*
X0078299Y0126753D01*
X0079050Y0126002D01*
X0079050Y0124501D01*
X0078299Y0123750D01*
X0076798Y0124501D02*
X0076047Y0123750D01*
X0075297Y0123750D01*
X0074546Y0124501D01*
X0074546Y0126002D01*
X0075297Y0126753D01*
X0076047Y0126753D01*
X0076798Y0126002D01*
X0069050Y0126753D02*
X0069050Y0123750D01*
X0069050Y0125251D02*
X0064546Y0125251D01*
X0066047Y0123750D01*
X0066798Y0128354D02*
X0064546Y0128354D01*
X0064546Y0131356D01*
X0066047Y0130606D02*
X0066047Y0129855D01*
X0066798Y0128354D01*
X0068299Y0128354D02*
X0069050Y0129105D01*
X0069050Y0130606D01*
X0068299Y0131356D01*
X0066798Y0131356D01*
X0066047Y0130606D01*
X0049773Y0148749D02*
X0051274Y0150250D01*
X0050523Y0150250D01*
X0050523Y0151001D01*
X0051274Y0151001D01*
X0051274Y0150250D01*
X0052842Y0151001D02*
X0053593Y0150250D01*
X0055094Y0150250D01*
X0055845Y0151001D01*
X0055845Y0152502D01*
X0055094Y0153253D01*
X0054343Y0153253D01*
X0052842Y0152502D01*
X0052842Y0154754D01*
X0055845Y0154754D01*
X0057446Y0152502D02*
X0060449Y0152502D01*
X0059698Y0150250D02*
X0059698Y0154754D01*
X0057446Y0152502D01*
X0048171Y0153253D02*
X0048171Y0154003D01*
X0047421Y0154754D01*
X0045920Y0154754D01*
X0045169Y0154003D01*
X0048171Y0153253D02*
X0045169Y0150250D01*
X0048171Y0150250D01*
D12*
X0102997Y0083457D02*
X0106100Y0083457D01*
X0106100Y0082423D02*
X0106100Y0084491D01*
X0104032Y0082423D02*
X0102997Y0083457D01*
X0102997Y0081268D02*
X0102997Y0080234D01*
X0102997Y0080751D02*
X0105583Y0080751D01*
X0106100Y0080234D01*
X0106100Y0079717D01*
X0105583Y0079200D01*
D13*
X0025800Y0033000D02*
X0025800Y0002500D01*
X0027800Y0002500D01*
X0027800Y0012500D01*
X0027800Y0022500D01*
X0027800Y0137000D01*
X0029800Y0137000D01*
X0029800Y0136500D01*
X0039300Y0136500D01*
X0039398Y0136498D01*
X0039496Y0136492D01*
X0039594Y0136483D01*
X0039691Y0136469D01*
X0039788Y0136452D01*
X0039884Y0136431D01*
X0039979Y0136406D01*
X0040073Y0136378D01*
X0040165Y0136345D01*
X0040257Y0136310D01*
X0040347Y0136270D01*
X0040435Y0136228D01*
X0040522Y0136181D01*
X0040606Y0136132D01*
X0040689Y0136079D01*
X0040769Y0136023D01*
X0040848Y0135963D01*
X0040924Y0135901D01*
X0040997Y0135836D01*
X0041068Y0135768D01*
X0041136Y0135697D01*
X0041201Y0135624D01*
X0041263Y0135548D01*
X0041323Y0135469D01*
X0041379Y0135389D01*
X0041432Y0135306D01*
X0041481Y0135222D01*
X0041528Y0135135D01*
X0041570Y0135047D01*
X0041610Y0134957D01*
X0041645Y0134865D01*
X0041678Y0134773D01*
X0041706Y0134679D01*
X0041731Y0134584D01*
X0041752Y0134488D01*
X0041769Y0134391D01*
X0041783Y0134294D01*
X0041792Y0134196D01*
X0041798Y0134098D01*
X0041800Y0134000D01*
X0041800Y0133500D02*
X0082300Y0133500D01*
X0084300Y0135500D01*
X0084300Y0155000D01*
X0082300Y0157000D01*
X0042300Y0157000D01*
X0041800Y0157000D01*
X0041800Y0137000D01*
X0041800Y0133500D01*
X0041800Y0132500D01*
X0044800Y0132500D01*
X0044800Y0027000D01*
X0041800Y0027000D01*
X0041800Y0132500D01*
X0027800Y0137000D02*
X0027800Y0147000D01*
X0027800Y0157000D01*
X0029800Y0157000D01*
X0041800Y0157000D01*
X0027800Y0157000D02*
X0025800Y0157000D01*
X0025800Y0126500D01*
X0025800Y0033000D01*
X0023300Y0031500D02*
X0003300Y0031500D01*
X0003213Y0031502D01*
X0003126Y0031508D01*
X0003039Y0031517D01*
X0002953Y0031530D01*
X0002867Y0031547D01*
X0002782Y0031568D01*
X0002699Y0031593D01*
X0002616Y0031621D01*
X0002535Y0031652D01*
X0002455Y0031687D01*
X0002377Y0031726D01*
X0002300Y0031768D01*
X0002225Y0031813D01*
X0002153Y0031862D01*
X0002082Y0031913D01*
X0002014Y0031968D01*
X0001949Y0032025D01*
X0001886Y0032086D01*
X0001825Y0032149D01*
X0001768Y0032214D01*
X0001713Y0032282D01*
X0001662Y0032353D01*
X0001613Y0032425D01*
X0001568Y0032500D01*
X0001526Y0032577D01*
X0001487Y0032655D01*
X0001452Y0032735D01*
X0001421Y0032816D01*
X0001393Y0032899D01*
X0001368Y0032982D01*
X0001347Y0033067D01*
X0001330Y0033153D01*
X0001317Y0033239D01*
X0001308Y0033326D01*
X0001302Y0033413D01*
X0001300Y0033500D01*
X0001300Y0034500D01*
X0001300Y0125000D01*
X0001300Y0126000D01*
X0001302Y0126087D01*
X0001308Y0126174D01*
X0001317Y0126261D01*
X0001330Y0126347D01*
X0001347Y0126433D01*
X0001368Y0126518D01*
X0001393Y0126601D01*
X0001421Y0126684D01*
X0001452Y0126765D01*
X0001487Y0126845D01*
X0001526Y0126923D01*
X0001568Y0127000D01*
X0001613Y0127075D01*
X0001662Y0127147D01*
X0001713Y0127218D01*
X0001768Y0127286D01*
X0001825Y0127351D01*
X0001886Y0127414D01*
X0001949Y0127475D01*
X0002014Y0127532D01*
X0002082Y0127587D01*
X0002153Y0127638D01*
X0002225Y0127687D01*
X0002300Y0127732D01*
X0002377Y0127774D01*
X0002455Y0127813D01*
X0002535Y0127848D01*
X0002616Y0127879D01*
X0002699Y0127907D01*
X0002782Y0127932D01*
X0002867Y0127953D01*
X0002953Y0127970D01*
X0003039Y0127983D01*
X0003126Y0127992D01*
X0003213Y0127998D01*
X0003300Y0128000D01*
X0023300Y0128000D01*
X0023398Y0128002D01*
X0023496Y0128008D01*
X0023594Y0128017D01*
X0023691Y0128031D01*
X0023788Y0128048D01*
X0023884Y0128069D01*
X0023979Y0128094D01*
X0024073Y0128122D01*
X0024165Y0128155D01*
X0024257Y0128190D01*
X0024347Y0128230D01*
X0024435Y0128272D01*
X0024522Y0128319D01*
X0024606Y0128368D01*
X0024689Y0128421D01*
X0024769Y0128477D01*
X0024848Y0128537D01*
X0024924Y0128599D01*
X0024997Y0128664D01*
X0025068Y0128732D01*
X0025136Y0128803D01*
X0025201Y0128876D01*
X0025263Y0128952D01*
X0025323Y0129031D01*
X0025379Y0129111D01*
X0025432Y0129194D01*
X0025481Y0129278D01*
X0025528Y0129365D01*
X0025570Y0129453D01*
X0025610Y0129543D01*
X0025645Y0129635D01*
X0025678Y0129727D01*
X0025706Y0129821D01*
X0025731Y0129916D01*
X0025752Y0130012D01*
X0025769Y0130109D01*
X0025783Y0130206D01*
X0025792Y0130304D01*
X0025798Y0130402D01*
X0025800Y0130500D01*
X0065300Y0145600D02*
X0065302Y0145761D01*
X0065308Y0145921D01*
X0065318Y0146082D01*
X0065332Y0146242D01*
X0065350Y0146402D01*
X0065371Y0146561D01*
X0065397Y0146720D01*
X0065427Y0146878D01*
X0065460Y0147035D01*
X0065498Y0147192D01*
X0065539Y0147347D01*
X0065584Y0147501D01*
X0065633Y0147654D01*
X0065686Y0147806D01*
X0065742Y0147957D01*
X0065803Y0148106D01*
X0065866Y0148254D01*
X0065934Y0148400D01*
X0066005Y0148544D01*
X0066079Y0148686D01*
X0066157Y0148827D01*
X0066239Y0148965D01*
X0066324Y0149102D01*
X0066412Y0149236D01*
X0066504Y0149368D01*
X0066599Y0149498D01*
X0066697Y0149626D01*
X0066798Y0149751D01*
X0066902Y0149873D01*
X0067009Y0149993D01*
X0067119Y0150110D01*
X0067232Y0150225D01*
X0067348Y0150336D01*
X0067467Y0150445D01*
X0067588Y0150550D01*
X0067712Y0150653D01*
X0067838Y0150753D01*
X0067966Y0150849D01*
X0068097Y0150942D01*
X0068231Y0151032D01*
X0068366Y0151119D01*
X0068504Y0151202D01*
X0068643Y0151282D01*
X0068785Y0151358D01*
X0068928Y0151431D01*
X0069073Y0151500D01*
X0069220Y0151566D01*
X0069368Y0151628D01*
X0069518Y0151686D01*
X0069669Y0151741D01*
X0069822Y0151792D01*
X0069976Y0151839D01*
X0070131Y0151882D01*
X0070287Y0151921D01*
X0070443Y0151957D01*
X0070601Y0151988D01*
X0070759Y0152016D01*
X0070918Y0152040D01*
X0071078Y0152060D01*
X0071238Y0152076D01*
X0071398Y0152088D01*
X0071559Y0152096D01*
X0071720Y0152100D01*
X0071880Y0152100D01*
X0072041Y0152096D01*
X0072202Y0152088D01*
X0072362Y0152076D01*
X0072522Y0152060D01*
X0072682Y0152040D01*
X0072841Y0152016D01*
X0072999Y0151988D01*
X0073157Y0151957D01*
X0073313Y0151921D01*
X0073469Y0151882D01*
X0073624Y0151839D01*
X0073778Y0151792D01*
X0073931Y0151741D01*
X0074082Y0151686D01*
X0074232Y0151628D01*
X0074380Y0151566D01*
X0074527Y0151500D01*
X0074672Y0151431D01*
X0074815Y0151358D01*
X0074957Y0151282D01*
X0075096Y0151202D01*
X0075234Y0151119D01*
X0075369Y0151032D01*
X0075503Y0150942D01*
X0075634Y0150849D01*
X0075762Y0150753D01*
X0075888Y0150653D01*
X0076012Y0150550D01*
X0076133Y0150445D01*
X0076252Y0150336D01*
X0076368Y0150225D01*
X0076481Y0150110D01*
X0076591Y0149993D01*
X0076698Y0149873D01*
X0076802Y0149751D01*
X0076903Y0149626D01*
X0077001Y0149498D01*
X0077096Y0149368D01*
X0077188Y0149236D01*
X0077276Y0149102D01*
X0077361Y0148965D01*
X0077443Y0148827D01*
X0077521Y0148686D01*
X0077595Y0148544D01*
X0077666Y0148400D01*
X0077734Y0148254D01*
X0077797Y0148106D01*
X0077858Y0147957D01*
X0077914Y0147806D01*
X0077967Y0147654D01*
X0078016Y0147501D01*
X0078061Y0147347D01*
X0078102Y0147192D01*
X0078140Y0147035D01*
X0078173Y0146878D01*
X0078203Y0146720D01*
X0078229Y0146561D01*
X0078250Y0146402D01*
X0078268Y0146242D01*
X0078282Y0146082D01*
X0078292Y0145921D01*
X0078298Y0145761D01*
X0078300Y0145600D01*
X0078298Y0145439D01*
X0078292Y0145279D01*
X0078282Y0145118D01*
X0078268Y0144958D01*
X0078250Y0144798D01*
X0078229Y0144639D01*
X0078203Y0144480D01*
X0078173Y0144322D01*
X0078140Y0144165D01*
X0078102Y0144008D01*
X0078061Y0143853D01*
X0078016Y0143699D01*
X0077967Y0143546D01*
X0077914Y0143394D01*
X0077858Y0143243D01*
X0077797Y0143094D01*
X0077734Y0142946D01*
X0077666Y0142800D01*
X0077595Y0142656D01*
X0077521Y0142514D01*
X0077443Y0142373D01*
X0077361Y0142235D01*
X0077276Y0142098D01*
X0077188Y0141964D01*
X0077096Y0141832D01*
X0077001Y0141702D01*
X0076903Y0141574D01*
X0076802Y0141449D01*
X0076698Y0141327D01*
X0076591Y0141207D01*
X0076481Y0141090D01*
X0076368Y0140975D01*
X0076252Y0140864D01*
X0076133Y0140755D01*
X0076012Y0140650D01*
X0075888Y0140547D01*
X0075762Y0140447D01*
X0075634Y0140351D01*
X0075503Y0140258D01*
X0075369Y0140168D01*
X0075234Y0140081D01*
X0075096Y0139998D01*
X0074957Y0139918D01*
X0074815Y0139842D01*
X0074672Y0139769D01*
X0074527Y0139700D01*
X0074380Y0139634D01*
X0074232Y0139572D01*
X0074082Y0139514D01*
X0073931Y0139459D01*
X0073778Y0139408D01*
X0073624Y0139361D01*
X0073469Y0139318D01*
X0073313Y0139279D01*
X0073157Y0139243D01*
X0072999Y0139212D01*
X0072841Y0139184D01*
X0072682Y0139160D01*
X0072522Y0139140D01*
X0072362Y0139124D01*
X0072202Y0139112D01*
X0072041Y0139104D01*
X0071880Y0139100D01*
X0071720Y0139100D01*
X0071559Y0139104D01*
X0071398Y0139112D01*
X0071238Y0139124D01*
X0071078Y0139140D01*
X0070918Y0139160D01*
X0070759Y0139184D01*
X0070601Y0139212D01*
X0070443Y0139243D01*
X0070287Y0139279D01*
X0070131Y0139318D01*
X0069976Y0139361D01*
X0069822Y0139408D01*
X0069669Y0139459D01*
X0069518Y0139514D01*
X0069368Y0139572D01*
X0069220Y0139634D01*
X0069073Y0139700D01*
X0068928Y0139769D01*
X0068785Y0139842D01*
X0068643Y0139918D01*
X0068504Y0139998D01*
X0068366Y0140081D01*
X0068231Y0140168D01*
X0068097Y0140258D01*
X0067966Y0140351D01*
X0067838Y0140447D01*
X0067712Y0140547D01*
X0067588Y0140650D01*
X0067467Y0140755D01*
X0067348Y0140864D01*
X0067232Y0140975D01*
X0067119Y0141090D01*
X0067009Y0141207D01*
X0066902Y0141327D01*
X0066798Y0141449D01*
X0066697Y0141574D01*
X0066599Y0141702D01*
X0066504Y0141832D01*
X0066412Y0141964D01*
X0066324Y0142098D01*
X0066239Y0142235D01*
X0066157Y0142373D01*
X0066079Y0142514D01*
X0066005Y0142656D01*
X0065934Y0142800D01*
X0065866Y0142946D01*
X0065803Y0143094D01*
X0065742Y0143243D01*
X0065686Y0143394D01*
X0065633Y0143546D01*
X0065584Y0143699D01*
X0065539Y0143853D01*
X0065498Y0144008D01*
X0065460Y0144165D01*
X0065427Y0144322D01*
X0065397Y0144480D01*
X0065371Y0144639D01*
X0065350Y0144798D01*
X0065332Y0144958D01*
X0065318Y0145118D01*
X0065308Y0145279D01*
X0065302Y0145439D01*
X0065300Y0145600D01*
X0023300Y0031500D02*
X0023398Y0031498D01*
X0023496Y0031492D01*
X0023594Y0031483D01*
X0023691Y0031469D01*
X0023788Y0031452D01*
X0023884Y0031431D01*
X0023979Y0031406D01*
X0024073Y0031378D01*
X0024165Y0031345D01*
X0024257Y0031310D01*
X0024347Y0031270D01*
X0024435Y0031228D01*
X0024522Y0031181D01*
X0024606Y0031132D01*
X0024689Y0031079D01*
X0024769Y0031023D01*
X0024848Y0030963D01*
X0024924Y0030901D01*
X0024997Y0030836D01*
X0025068Y0030768D01*
X0025136Y0030697D01*
X0025201Y0030624D01*
X0025263Y0030548D01*
X0025323Y0030469D01*
X0025379Y0030389D01*
X0025432Y0030306D01*
X0025481Y0030222D01*
X0025528Y0030135D01*
X0025570Y0030047D01*
X0025610Y0029957D01*
X0025645Y0029865D01*
X0025678Y0029773D01*
X0025706Y0029679D01*
X0025731Y0029584D01*
X0025752Y0029488D01*
X0025769Y0029391D01*
X0025783Y0029294D01*
X0025792Y0029196D01*
X0025798Y0029098D01*
X0025800Y0029000D01*
X0027800Y0022500D02*
X0029800Y0022500D01*
X0029800Y0023000D01*
X0039300Y0023000D01*
X0039398Y0023002D01*
X0039496Y0023008D01*
X0039594Y0023017D01*
X0039691Y0023031D01*
X0039788Y0023048D01*
X0039884Y0023069D01*
X0039979Y0023094D01*
X0040073Y0023122D01*
X0040165Y0023155D01*
X0040257Y0023190D01*
X0040347Y0023230D01*
X0040435Y0023272D01*
X0040522Y0023319D01*
X0040606Y0023368D01*
X0040689Y0023421D01*
X0040769Y0023477D01*
X0040848Y0023537D01*
X0040924Y0023599D01*
X0040997Y0023664D01*
X0041068Y0023732D01*
X0041136Y0023803D01*
X0041201Y0023876D01*
X0041263Y0023952D01*
X0041323Y0024031D01*
X0041379Y0024111D01*
X0041432Y0024194D01*
X0041481Y0024278D01*
X0041528Y0024365D01*
X0041570Y0024453D01*
X0041610Y0024543D01*
X0041645Y0024635D01*
X0041678Y0024727D01*
X0041706Y0024821D01*
X0041731Y0024916D01*
X0041752Y0025012D01*
X0041769Y0025109D01*
X0041783Y0025206D01*
X0041792Y0025304D01*
X0041798Y0025402D01*
X0041800Y0025500D01*
X0041800Y0026000D02*
X0041800Y0022500D01*
X0041800Y0002500D01*
X0042300Y0002500D01*
X0081800Y0002500D01*
X0084300Y0005000D01*
X0084300Y0024000D01*
X0082300Y0026000D01*
X0041800Y0026000D01*
X0041800Y0027000D01*
X0041800Y0002500D02*
X0029800Y0002500D01*
X0027800Y0002500D01*
X0065300Y0014400D02*
X0065302Y0014561D01*
X0065308Y0014721D01*
X0065318Y0014882D01*
X0065332Y0015042D01*
X0065350Y0015202D01*
X0065371Y0015361D01*
X0065397Y0015520D01*
X0065427Y0015678D01*
X0065460Y0015835D01*
X0065498Y0015992D01*
X0065539Y0016147D01*
X0065584Y0016301D01*
X0065633Y0016454D01*
X0065686Y0016606D01*
X0065742Y0016757D01*
X0065803Y0016906D01*
X0065866Y0017054D01*
X0065934Y0017200D01*
X0066005Y0017344D01*
X0066079Y0017486D01*
X0066157Y0017627D01*
X0066239Y0017765D01*
X0066324Y0017902D01*
X0066412Y0018036D01*
X0066504Y0018168D01*
X0066599Y0018298D01*
X0066697Y0018426D01*
X0066798Y0018551D01*
X0066902Y0018673D01*
X0067009Y0018793D01*
X0067119Y0018910D01*
X0067232Y0019025D01*
X0067348Y0019136D01*
X0067467Y0019245D01*
X0067588Y0019350D01*
X0067712Y0019453D01*
X0067838Y0019553D01*
X0067966Y0019649D01*
X0068097Y0019742D01*
X0068231Y0019832D01*
X0068366Y0019919D01*
X0068504Y0020002D01*
X0068643Y0020082D01*
X0068785Y0020158D01*
X0068928Y0020231D01*
X0069073Y0020300D01*
X0069220Y0020366D01*
X0069368Y0020428D01*
X0069518Y0020486D01*
X0069669Y0020541D01*
X0069822Y0020592D01*
X0069976Y0020639D01*
X0070131Y0020682D01*
X0070287Y0020721D01*
X0070443Y0020757D01*
X0070601Y0020788D01*
X0070759Y0020816D01*
X0070918Y0020840D01*
X0071078Y0020860D01*
X0071238Y0020876D01*
X0071398Y0020888D01*
X0071559Y0020896D01*
X0071720Y0020900D01*
X0071880Y0020900D01*
X0072041Y0020896D01*
X0072202Y0020888D01*
X0072362Y0020876D01*
X0072522Y0020860D01*
X0072682Y0020840D01*
X0072841Y0020816D01*
X0072999Y0020788D01*
X0073157Y0020757D01*
X0073313Y0020721D01*
X0073469Y0020682D01*
X0073624Y0020639D01*
X0073778Y0020592D01*
X0073931Y0020541D01*
X0074082Y0020486D01*
X0074232Y0020428D01*
X0074380Y0020366D01*
X0074527Y0020300D01*
X0074672Y0020231D01*
X0074815Y0020158D01*
X0074957Y0020082D01*
X0075096Y0020002D01*
X0075234Y0019919D01*
X0075369Y0019832D01*
X0075503Y0019742D01*
X0075634Y0019649D01*
X0075762Y0019553D01*
X0075888Y0019453D01*
X0076012Y0019350D01*
X0076133Y0019245D01*
X0076252Y0019136D01*
X0076368Y0019025D01*
X0076481Y0018910D01*
X0076591Y0018793D01*
X0076698Y0018673D01*
X0076802Y0018551D01*
X0076903Y0018426D01*
X0077001Y0018298D01*
X0077096Y0018168D01*
X0077188Y0018036D01*
X0077276Y0017902D01*
X0077361Y0017765D01*
X0077443Y0017627D01*
X0077521Y0017486D01*
X0077595Y0017344D01*
X0077666Y0017200D01*
X0077734Y0017054D01*
X0077797Y0016906D01*
X0077858Y0016757D01*
X0077914Y0016606D01*
X0077967Y0016454D01*
X0078016Y0016301D01*
X0078061Y0016147D01*
X0078102Y0015992D01*
X0078140Y0015835D01*
X0078173Y0015678D01*
X0078203Y0015520D01*
X0078229Y0015361D01*
X0078250Y0015202D01*
X0078268Y0015042D01*
X0078282Y0014882D01*
X0078292Y0014721D01*
X0078298Y0014561D01*
X0078300Y0014400D01*
X0078298Y0014239D01*
X0078292Y0014079D01*
X0078282Y0013918D01*
X0078268Y0013758D01*
X0078250Y0013598D01*
X0078229Y0013439D01*
X0078203Y0013280D01*
X0078173Y0013122D01*
X0078140Y0012965D01*
X0078102Y0012808D01*
X0078061Y0012653D01*
X0078016Y0012499D01*
X0077967Y0012346D01*
X0077914Y0012194D01*
X0077858Y0012043D01*
X0077797Y0011894D01*
X0077734Y0011746D01*
X0077666Y0011600D01*
X0077595Y0011456D01*
X0077521Y0011314D01*
X0077443Y0011173D01*
X0077361Y0011035D01*
X0077276Y0010898D01*
X0077188Y0010764D01*
X0077096Y0010632D01*
X0077001Y0010502D01*
X0076903Y0010374D01*
X0076802Y0010249D01*
X0076698Y0010127D01*
X0076591Y0010007D01*
X0076481Y0009890D01*
X0076368Y0009775D01*
X0076252Y0009664D01*
X0076133Y0009555D01*
X0076012Y0009450D01*
X0075888Y0009347D01*
X0075762Y0009247D01*
X0075634Y0009151D01*
X0075503Y0009058D01*
X0075369Y0008968D01*
X0075234Y0008881D01*
X0075096Y0008798D01*
X0074957Y0008718D01*
X0074815Y0008642D01*
X0074672Y0008569D01*
X0074527Y0008500D01*
X0074380Y0008434D01*
X0074232Y0008372D01*
X0074082Y0008314D01*
X0073931Y0008259D01*
X0073778Y0008208D01*
X0073624Y0008161D01*
X0073469Y0008118D01*
X0073313Y0008079D01*
X0073157Y0008043D01*
X0072999Y0008012D01*
X0072841Y0007984D01*
X0072682Y0007960D01*
X0072522Y0007940D01*
X0072362Y0007924D01*
X0072202Y0007912D01*
X0072041Y0007904D01*
X0071880Y0007900D01*
X0071720Y0007900D01*
X0071559Y0007904D01*
X0071398Y0007912D01*
X0071238Y0007924D01*
X0071078Y0007940D01*
X0070918Y0007960D01*
X0070759Y0007984D01*
X0070601Y0008012D01*
X0070443Y0008043D01*
X0070287Y0008079D01*
X0070131Y0008118D01*
X0069976Y0008161D01*
X0069822Y0008208D01*
X0069669Y0008259D01*
X0069518Y0008314D01*
X0069368Y0008372D01*
X0069220Y0008434D01*
X0069073Y0008500D01*
X0068928Y0008569D01*
X0068785Y0008642D01*
X0068643Y0008718D01*
X0068504Y0008798D01*
X0068366Y0008881D01*
X0068231Y0008968D01*
X0068097Y0009058D01*
X0067966Y0009151D01*
X0067838Y0009247D01*
X0067712Y0009347D01*
X0067588Y0009450D01*
X0067467Y0009555D01*
X0067348Y0009664D01*
X0067232Y0009775D01*
X0067119Y0009890D01*
X0067009Y0010007D01*
X0066902Y0010127D01*
X0066798Y0010249D01*
X0066697Y0010374D01*
X0066599Y0010502D01*
X0066504Y0010632D01*
X0066412Y0010764D01*
X0066324Y0010898D01*
X0066239Y0011035D01*
X0066157Y0011173D01*
X0066079Y0011314D01*
X0066005Y0011456D01*
X0065934Y0011600D01*
X0065866Y0011746D01*
X0065803Y0011894D01*
X0065742Y0012043D01*
X0065686Y0012194D01*
X0065633Y0012346D01*
X0065584Y0012499D01*
X0065539Y0012653D01*
X0065498Y0012808D01*
X0065460Y0012965D01*
X0065427Y0013122D01*
X0065397Y0013280D01*
X0065371Y0013439D01*
X0065350Y0013598D01*
X0065332Y0013758D01*
X0065318Y0013918D01*
X0065308Y0014079D01*
X0065302Y0014239D01*
X0065300Y0014400D01*
D14*
X0090145Y0012397D02*
X0096450Y0012397D01*
X0096450Y0010295D02*
X0096450Y0014499D01*
X0092246Y0010295D02*
X0090145Y0012397D01*
X0090145Y0008054D02*
X0096450Y0003850D01*
X0096450Y0008054D02*
X0090145Y0003850D01*
D15*
X0043300Y0079750D03*
D16*
X0026800Y0079750D03*
D17*
X0059050Y0074600D03*
X0059050Y0063800D03*
X0059050Y0053000D03*
X0059050Y0042200D03*
X0059050Y0085400D03*
X0059050Y0096200D03*
X0059050Y0107000D03*
X0059050Y0117800D03*
D18*
X0054050Y0112400D03*
X0054050Y0101600D03*
X0054050Y0090800D03*
X0054050Y0080000D03*
X0054050Y0069200D03*
X0054050Y0058400D03*
X0054050Y0047600D03*
M02*
