%
M48
M72
T01C0.02362
T02C0.03500
T03C0.04000
T04C0.13000
%
T01
X98800Y59000
X106800Y59000
X122800Y56000
X122800Y94000
T02
X113800Y89000
X113800Y79000
X113800Y69000
X113800Y59000
X113800Y49000
X113800Y39000
X113800Y99000
X113800Y109000
X113800Y119000
X113800Y129000
T03
X66800Y47600
X66800Y58400
X66800Y69200
X66800Y80000
X66800Y90800
X66800Y101600
X66800Y112400
X76800Y107000
X76800Y96200
X76800Y85400
X76800Y74600
X76800Y63800
X76800Y53000
X76800Y42200
X76800Y117800
T04
X71800Y145600
X71800Y14400
M30
